<svg width="23" height="21" viewBox="0 0 23 21" fill="none" xmlns="http://www.w3.org/2000/svg">
<path d="M1.875 11.875L18.1825 11.875L13.1913 17.87C12.9579 18.1508 12.8456 18.5128 12.8791 18.8764C12.9126 19.24 13.0892 19.5753 13.37 19.8087C13.6508 20.0421 14.0128 20.1544 14.3764 20.1209C14.74 20.0874 15.0754 19.9108 15.3088 19.63L22.1838 11.38C22.23 11.3144 22.2714 11.2454 22.3075 11.1737C22.3075 11.105 22.3075 11.0637 22.4038 10.995C22.4661 10.8373 22.4987 10.6695 22.5 10.5C22.4987 10.3305 22.4661 10.1626 22.4038 10.005C22.4038 9.93624 22.4038 9.89499 22.3075 9.82624C22.2714 9.75454 22.23 9.68561 22.1838 9.61999L15.3088 1.36999C15.1795 1.21477 15.0176 1.08995 14.8346 1.0044C14.6516 0.918842 14.452 0.874658 14.25 0.874986C13.9287 0.874358 13.6174 0.986249 13.37 1.19124C13.2308 1.30667 13.1157 1.44843 13.0313 1.60841C12.947 1.76839 12.895 1.94343 12.8784 2.12352C12.8618 2.30362 12.8809 2.48522 12.9346 2.65792C12.9882 2.83063 13.0755 2.99104 13.1913 3.12998L18.1825 9.12499L1.875 9.12499C1.51033 9.12499 1.16059 9.26985 0.902728 9.52771C0.644866 9.78558 0.500001 10.1353 0.500001 10.5C0.500001 10.8647 0.644866 11.2144 0.902728 11.4723C1.16059 11.7301 1.51033 11.875 1.875 11.875Z" fill="black"/>
</svg>
