<svg width="37" height="37" viewBox="0 0 37 37" fill="none" xmlns="http://www.w3.org/2000/svg">
<path d="M29.2917 16.9582H11.0075L16.6037 10.2366C16.8654 9.92173 16.9913 9.51584 16.9537 9.10818C16.9161 8.70052 16.7182 8.32449 16.4033 8.06281C16.0885 7.80113 15.6826 7.67524 15.2749 7.71282C14.8673 7.75041 14.4913 7.9484 14.2296 8.26323L6.52124 17.5132C6.46938 17.5868 6.423 17.6641 6.38249 17.7445C6.38249 17.8216 6.38249 17.8678 6.27457 17.9449C6.2047 18.1217 6.16811 18.3098 6.16666 18.4999C6.16811 18.69 6.2047 18.8781 6.27457 19.0549C6.27457 19.132 6.27457 19.1782 6.38249 19.2553C6.423 19.3357 6.46938 19.413 6.52124 19.4866L14.2296 28.7366C14.3745 28.9106 14.556 29.0505 14.7612 29.1465C14.9664 29.2424 15.1902 29.2919 15.4167 29.2916C15.7769 29.2923 16.126 29.1668 16.4033 28.937C16.5594 28.8076 16.6885 28.6486 16.7831 28.4692C16.8776 28.2899 16.9359 28.0936 16.9545 27.8917C16.9731 27.6898 16.9517 27.4862 16.8915 27.2925C16.8314 27.0989 16.7336 26.919 16.6037 26.7632L11.0075 20.0416H29.2917C29.7005 20.0416 30.0927 19.8791 30.3818 19.59C30.6709 19.3009 30.8333 18.9088 30.8333 18.4999C30.8333 18.091 30.6709 17.6989 30.3818 17.4098C30.0927 17.1207 29.7005 16.9582 29.2917 16.9582Z" fill="black"/>
</svg>
