<svg width="14" height="14" viewBox="0 0 14 14" fill="none" xmlns="http://www.w3.org/2000/svg">
<g clip-path="url(#clip0_1_3592)">
<path d="M9.1875 7.4375C9.1875 8.01766 8.95703 8.57406 8.5468 8.9843C8.13656 9.39453 7.58016 9.625 7 9.625C6.41984 9.625 5.86344 9.39453 5.4532 8.9843C5.04297 8.57406 4.8125 8.01766 4.8125 7.4375C4.8125 6.85734 5.04297 6.30094 5.4532 5.8907C5.86344 5.48047 6.41984 5.25 7 5.25C7.58016 5.25 8.13656 5.48047 8.5468 5.8907C8.95703 6.30094 9.1875 6.85734 9.1875 7.4375Z" fill="white"/>
<path d="M1.75 3.5C1.28587 3.5 0.840752 3.68437 0.512563 4.01256C0.184374 4.34075 0 4.78587 0 5.25L0 10.5C0 10.9641 0.184374 11.4092 0.512563 11.7374C0.840752 12.0656 1.28587 12.25 1.75 12.25H12.25C12.7141 12.25 13.1592 12.0656 13.4874 11.7374C13.8156 11.4092 14 10.9641 14 10.5V5.25C14 4.78587 13.8156 4.34075 13.4874 4.01256C13.1592 3.68437 12.7141 3.5 12.25 3.5H11.2245C10.7604 3.4999 10.3154 3.31546 9.98725 2.98725L9.26275 2.26275C8.93464 1.93454 8.48959 1.7501 8.0255 1.75H5.9745C5.51041 1.7501 5.06536 1.93454 4.73725 2.26275L4.01275 2.98725C3.68464 3.31546 3.23959 3.4999 2.7755 3.5H1.75ZM2.1875 5.25C2.07147 5.25 1.96019 5.20391 1.87814 5.12186C1.79609 5.03981 1.75 4.92853 1.75 4.8125C1.75 4.69647 1.79609 4.58519 1.87814 4.50314C1.96019 4.42109 2.07147 4.375 2.1875 4.375C2.30353 4.375 2.41481 4.42109 2.49686 4.50314C2.57891 4.58519 2.625 4.69647 2.625 4.8125C2.625 4.92853 2.57891 5.03981 2.49686 5.12186C2.41481 5.20391 2.30353 5.25 2.1875 5.25ZM10.0625 7.4375C10.0625 8.24973 9.73984 9.02868 9.16551 9.60301C8.59118 10.1773 7.81223 10.5 7 10.5C6.18777 10.5 5.40882 10.1773 4.83449 9.60301C4.26016 9.02868 3.9375 8.24973 3.9375 7.4375C3.9375 6.62527 4.26016 5.84632 4.83449 5.27199C5.40882 4.69766 6.18777 4.375 7 4.375C7.81223 4.375 8.59118 4.69766 9.16551 5.27199C9.73984 5.84632 10.0625 6.62527 10.0625 7.4375Z" fill="white"/>
</g>
<defs>
<clipPath id="clip0_1_3592">
<rect width="14" height="14" fill="white"/>
</clipPath>
</defs>
</svg>
