<svg width="24" height="24" viewBox="0 0 24 24" fill="none" xmlns="http://www.w3.org/2000/svg">
<path d="M6 22H18C19.1 22 20 21.1 20 20V15.68H4V20C4 21.1 4.9 22 6 22Z" stroke="white" stroke-width="1.5" stroke-linecap="round" stroke-linejoin="round"/>
<path d="M4 15.6797V12.1197C4 11.0397 4.58003 10.0397 5.53003 9.5097L8.48999 7.83972C9.11999 7.48972 9.51001 6.81967 9.51001 6.09967V3.99969C9.51001 2.89969 10.41 1.99969 11.51 1.99969H12.51C13.61 1.99969 14.51 2.89969 14.51 3.99969V6.09967C14.51 6.81967 14.9 7.48972 15.53 7.83972L18.49 9.5097C19.43 10.0397 20.02 11.0397 20.02 12.1197V15.6797H4Z" stroke="white" stroke-width="1.5" stroke-linecap="round" stroke-linejoin="round"/>
</svg>
