<svg width="14" height="24" viewBox="0 0 14 24" fill="none" xmlns="http://www.w3.org/2000/svg">
<path d="M0.620045 1.42004C0.434638 1.60507 0.287542 1.82485 0.18718 2.0668C0.0868166 2.30874 0.0351562 2.56811 0.0351562 2.83004C0.0351562 3.09198 0.0868166 3.35135 0.18718 3.59329C0.287542 3.83524 0.434638 4.05502 0.620045 4.24004L8.38004 12L0.620045 19.76C0.246089 20.134 0.0360031 20.6412 0.0360031 21.17C0.0360031 21.6989 0.246089 22.2061 0.620045 22.58C0.994 22.954 1.50119 23.1641 2.03004 23.1641C2.5589 23.1641 3.06609 22.954 3.44004 22.58L12.62 13.4C12.8055 13.215 12.9525 12.9952 13.0529 12.7533C13.1533 12.5113 13.2049 12.252 13.2049 11.99C13.2049 11.7281 13.1533 11.4687 13.0529 11.2268C12.9525 10.9848 12.8055 10.7651 12.62 10.58L3.44004 1.40004C2.68004 0.640044 1.40004 0.640044 0.620045 1.42004Z" fill="#101D49"/>
</svg>
