<svg width="20" height="21" viewBox="0 0 20 21" fill="none" xmlns="http://www.w3.org/2000/svg">
<g id="vuesax/linear/setting-4">
<g id="setting-4">
<path id="Vector" d="M18.3334 5.91663H13.3334" stroke="#707070" stroke-width="1.5" stroke-miterlimit="10" stroke-linecap="round" stroke-linejoin="round"/>
<path id="Vector_2" d="M4.99996 5.91663H1.66663" stroke="#707070" stroke-width="1.5" stroke-miterlimit="10" stroke-linecap="round" stroke-linejoin="round"/>
<path id="Vector_3" d="M8.33329 8.83333C9.94412 8.83333 11.25 7.5275 11.25 5.91667C11.25 4.30584 9.94412 3 8.33329 3C6.72246 3 5.41663 4.30584 5.41663 5.91667C5.41663 7.5275 6.72246 8.83333 8.33329 8.83333Z" stroke="#707070" stroke-width="1.5" stroke-miterlimit="10" stroke-linecap="round" stroke-linejoin="round"/>
<path id="Vector_4" d="M18.3333 15.0834H15" stroke="#707070" stroke-width="1.5" stroke-miterlimit="10" stroke-linecap="round" stroke-linejoin="round"/>
<path id="Vector_5" d="M6.66663 15.0834H1.66663" stroke="#707070" stroke-width="1.5" stroke-miterlimit="10" stroke-linecap="round" stroke-linejoin="round"/>
<path id="Vector_6" d="M11.6667 18C13.2775 18 14.5833 16.6941 14.5833 15.0833C14.5833 13.4725 13.2775 12.1666 11.6667 12.1666C10.0558 12.1666 8.75 13.4725 8.75 15.0833C8.75 16.6941 10.0558 18 11.6667 18Z" stroke="#707070" stroke-width="1.5" stroke-miterlimit="10" stroke-linecap="round" stroke-linejoin="round"/>
</g>
</g>
</svg>
