<svg width="14" height="13" viewBox="0 0 14 13" fill="none" xmlns="http://www.w3.org/2000/svg">
<path d="M1.31124 4.58292L3.75203 4.08825C4.02928 4.03207 4.26975 3.86108 4.41388 3.61767L5.59375 1.625L6.13952 0.703248C6.52677 0.0492371 7.47323 0.049237 7.86048 0.703248L9.58612 3.61767C9.73025 3.86108 9.97072 4.03207 10.248 4.08825L12.6888 4.58292C13.4675 4.74074 13.76 5.69987 13.2019 6.2654L11.1218 8.37325C10.8892 8.60893 10.7884 8.94445 10.8525 9.26929L11.2902 11.487C11.4516 12.3046 10.6006 12.9493 9.85715 12.5726L7.45196 11.354C7.16785 11.21 6.83215 11.21 6.54804 11.354L4.14285 12.5726C3.39939 12.9493 2.54843 12.3046 2.70981 11.487L3.14751 9.26929C3.21162 8.94445 3.11078 8.60893 2.87821 8.37325L0.798097 6.26541C0.240005 5.69987 0.532534 4.74074 1.31124 4.58292Z" fill="#FBBB00"/>
</svg>
