<svg width="38" height="38" viewBox="0 0 38 38" fill="none" xmlns="http://www.w3.org/2000/svg">
<g clip-path="url(#clip0_1_996)">
<path d="M8.4216 22.9638L7.09888 27.9017L2.26434 28.004C0.819524 25.3241 0 22.2581 0 18.9999C0 15.8492 0.766234 12.8781 2.12444 10.262H2.12548L6.42957 11.0511L8.31502 15.3293C7.9204 16.4798 7.70532 17.7148 7.70532 18.9999C7.70546 20.3946 7.95811 21.7309 8.4216 22.9638Z" fill="#FBBB00"/>
<path d="M37.6682 15.4507C37.8864 16.6 38.0002 17.787 38.0002 19.0001C38.0002 20.3604 37.8572 21.6873 37.5847 22.9672C36.6598 27.3226 34.243 31.1257 30.8951 33.817L30.8941 33.816L25.4728 33.5393L24.7055 28.7496C26.9271 27.4468 28.6632 25.4079 29.5777 22.9672H19.4179V15.4507H29.7259H37.6682Z" fill="#518EF8"/>
<path d="M30.8937 33.816L30.8947 33.817C27.6387 36.4342 23.5024 38.0002 18.9999 38.0002C11.7642 38.0002 5.47337 33.9559 2.26422 28.0043L8.42148 22.9641C10.026 27.2464 14.157 30.2948 18.9999 30.2948C21.0815 30.2948 23.0317 29.732 24.7051 28.7497L30.8937 33.816Z" fill="#28B446"/>
<path d="M31.1276 4.37416L24.9724 9.41331C23.2405 8.33076 21.1933 7.70539 19 7.70539C14.0474 7.70539 9.83921 10.8936 8.31505 15.3294L2.12543 10.2621H2.12439C5.28655 4.16538 11.6567 0 19 0C23.6101 0 27.837 1.64216 31.1276 4.37416Z" fill="#F14336"/>
</g>
<defs>
<clipPath id="clip0_1_996">
<rect width="38" height="38" fill="white"/>
</clipPath>
</defs>
</svg>
