<svg width="23" height="21" viewBox="0 0 23 21" fill="none" xmlns="http://www.w3.org/2000/svg">
<path d="M21.125 9.12501H4.8175L9.80875 3.13001C10.0421 2.84921 10.1544 2.4872 10.1209 2.12362C10.0874 1.76003 9.9108 1.42465 9.63 1.19126C9.3492 0.957872 8.98719 0.845587 8.6236 0.879109C8.26002 0.912631 7.92464 1.08922 7.69125 1.37001L0.81625 9.62001C0.769996 9.68563 0.728634 9.75457 0.6925 9.82626C0.6925 9.89501 0.6925 9.93626 0.59625 10.005C0.533926 10.1627 0.501294 10.3305 0.5 10.5C0.501294 10.6695 0.533926 10.8374 0.59625 10.995C0.59625 11.0638 0.59625 11.105 0.6925 11.1738C0.728634 11.2455 0.769996 11.3144 0.81625 11.38L7.69125 19.63C7.82053 19.7852 7.98242 19.91 8.16541 19.9956C8.3484 20.0812 8.548 20.1253 8.75 20.125C9.07127 20.1256 9.38262 20.0138 9.63 19.8088C9.76923 19.6933 9.88432 19.5516 9.96868 19.3916C10.053 19.2316 10.105 19.0566 10.1216 18.8765C10.1382 18.6964 10.1191 18.5148 10.0654 18.3421C10.0118 18.1694 9.92453 18.009 9.80875 17.87L4.8175 11.875H21.125C21.4897 11.875 21.8394 11.7301 22.0973 11.4723C22.3551 11.2144 22.5 10.8647 22.5 10.5C22.5 10.1353 22.3551 9.7856 22.0973 9.52774C21.8394 9.26988 21.4897 9.12501 21.125 9.12501Z" fill="black"/>
</svg>
