<svg width="20" height="20" viewBox="0 0 20 20" fill="none" xmlns="http://www.w3.org/2000/svg">
<g id="jam:gps-f">
<path id="Vector" d="M17.4325 3.86249L12.4717 17.2625C12.1584 18.1092 11.2559 18.5442 10.4567 18.2333C10.2588 18.1549 10.0793 18.0364 9.9294 17.8853C9.77953 17.7341 9.66257 17.5536 9.58588 17.355L8.01338 13.38C7.71787 12.617 7.13206 12.0021 6.38421 11.67L2.59921 10.0192C1.81171 9.67499 1.45338 8.72083 1.79754 7.88749C1.87895 7.68628 1.99945 7.5032 2.15208 7.34886C2.3047 7.19452 2.48642 7.07198 2.68671 6.98833L15.45 1.77999C16.2559 1.45083 17.15 1.86416 17.4459 2.70416C17.5767 3.07583 17.5717 3.48749 17.4334 3.86249H17.4325Z" fill="#157DDC"/>
</g>
</svg>
