<svg width="20" height="20" viewBox="0 0 20 20" fill="none" xmlns="http://www.w3.org/2000/svg">
<path d="M14.1667 2.91675H5.83332C3.33332 2.91675 1.66666 4.16675 1.66666 7.08342V12.9167C1.66666 15.8334 3.33332 17.0834 5.83332 17.0834H14.1667C16.6667 17.0834 18.3333 15.8334 18.3333 12.9167V7.08342C18.3333 4.16675 16.6667 2.91675 14.1667 2.91675ZM14.5583 7.99175L11.95 10.0751C11.4 10.5167 10.7 10.7334 9.99999 10.7334C9.29999 10.7334 8.59166 10.5167 8.04999 10.0751L5.44166 7.99175C5.17499 7.77508 5.13332 7.37508 5.34166 7.10841C5.55832 6.84175 5.94999 6.79175 6.21666 7.00841L8.82499 9.09175C9.45832 9.60008 10.5333 9.60008 11.1667 9.09175L13.775 7.00841C14.0417 6.79175 14.4417 6.83341 14.65 7.10841C14.8667 7.37508 14.825 7.77508 14.5583 7.99175Z" fill="#292D32"/>
</svg>
