<svg width="53" height="53" viewBox="0 0 53 53" fill="none" xmlns="http://www.w3.org/2000/svg">
<g clip-path="url(#clip0_1_1197)">
<path fill-rule="evenodd" clip-rule="evenodd" d="M0 26.5C0 19.4718 2.79196 12.7314 7.76167 7.76167C12.7314 2.79196 19.4718 0 26.5 0C33.5282 0 40.2686 2.79196 45.2383 7.76167C50.208 12.7314 53 19.4718 53 26.5C53 33.5282 50.208 40.2686 45.2383 45.2383C40.2686 50.208 33.5282 53 26.5 53C19.4718 53 12.7314 50.208 7.76167 45.2383C2.79196 40.2686 0 33.5282 0 26.5H0ZM24.9877 37.842L40.2447 18.7691L37.4887 16.5643L24.4789 32.8211L15.264 25.1432L13.0027 27.8568L24.9877 37.8455V37.842Z" fill="#3FC510"/>
</g>
<defs>
<clipPath id="clip0_1_1197">
<rect width="53" height="53" fill="white"/>
</clipPath>
</defs>
</svg>
