<svg width="18" height="18" viewBox="0 0 18 18" fill="none" xmlns="http://www.w3.org/2000/svg">
<path d="M9 17.3334C4.3975 17.3334 0.666668 13.6026 0.666668 9.00008C0.666668 4.39758 4.3975 0.666748 9 0.666748C13.6025 0.666748 17.3333 4.39758 17.3333 9.00008C17.3333 13.6026 13.6025 17.3334 9 17.3334ZM9 15.6667C10.7681 15.6667 12.4638 14.9644 13.714 13.7141C14.9643 12.4639 15.6667 10.7682 15.6667 9.00008C15.6667 7.23197 14.9643 5.53628 13.714 4.28604C12.4638 3.03579 10.7681 2.33341 9 2.33341C7.23189 2.33341 5.5362 3.03579 4.28596 4.28604C3.03571 5.53628 2.33333 7.23197 2.33333 9.00008C2.33333 10.7682 3.03571 12.4639 4.28596 13.7141C5.5362 14.9644 7.23189 15.6667 9 15.6667ZM9.83333 9.00008H13.1667V10.6667H8.16667V4.83341H9.83333V9.00008Z" fill="#555252"/>
</svg>
